<svg width="56" height="141" viewBox="0 0 56 141" fill="none" xmlns="http://www.w3.org/2000/svg">
<g clip-path="url(#clip0_0_159)">
<path opacity="0.25" d="M27.5 84.9961V0.996094" stroke="#87879D"/>
<g clip-path="url(#clip1_0_159)">
<rect y="84.9961" width="56" height="56" rx="28" fill="#FAFAFA"/>
<rect x="0.5" y="85.4961" width="55" height="55" rx="27.5" stroke="#87879D" stroke-opacity="0.25"/>
<path d="M23.4661 119.156C22.7087 119.156 22.0154 119.017 21.3861 118.74C20.7567 118.463 20.2234 118.073 19.7861 117.572C19.3487 117.071 19.0074 116.463 18.7621 115.748C18.5167 115.033 18.3941 114.244 18.3941 113.38C18.3941 112.516 18.5167 111.732 18.7621 111.028C19.0074 110.313 19.3487 109.705 19.7861 109.204C20.2341 108.703 20.7674 108.313 21.3861 108.036C22.0154 107.759 22.7087 107.62 23.4661 107.62C24.2234 107.62 24.9114 107.759 25.5301 108.036C26.1594 108.313 26.6927 108.703 27.1301 109.204C27.5781 109.705 27.9247 110.313 28.1701 111.028C28.4154 111.732 28.5381 112.516 28.5381 113.38C28.5381 114.244 28.4154 115.033 28.1701 115.748C27.9247 116.463 27.5834 117.071 27.1461 117.572C26.7087 118.073 26.1754 118.463 25.5461 118.74C24.9167 119.017 24.2234 119.156 23.4661 119.156ZM23.4661 116.916C24.2554 116.916 24.8741 116.601 25.3221 115.972C25.7807 115.343 26.0101 114.479 26.0101 113.38C26.0101 112.303 25.7807 111.449 25.3221 110.82C24.8634 110.18 24.2447 109.86 23.4661 109.86C22.6874 109.86 22.0687 110.18 21.6101 110.82C21.1514 111.449 20.9221 112.303 20.9221 113.38C20.9221 114.479 21.1461 115.343 21.5941 115.972C22.0527 116.601 22.6767 116.916 23.4661 116.916ZM29.3189 118.996V117.188L33.8149 113.284C34.2203 112.921 34.5136 112.591 34.6949 112.292C34.8869 111.993 34.9829 111.679 34.9829 111.348C34.9829 110.921 34.8123 110.569 34.4709 110.292C34.1296 110.004 33.6976 109.86 33.1749 109.86C32.6523 109.86 32.1616 109.967 31.7029 110.18C31.2549 110.393 30.7589 110.745 30.2149 111.236L28.7749 109.508C29.4469 108.9 30.1616 108.441 30.9189 108.132C31.6869 107.812 32.4709 107.652 33.2709 107.652C33.9003 107.652 34.4763 107.737 34.9989 107.908C35.5216 108.079 35.9643 108.319 36.3269 108.628C36.7003 108.937 36.9883 109.311 37.1909 109.748C37.4043 110.185 37.5109 110.665 37.5109 111.188C37.5109 111.807 37.3456 112.393 37.0149 112.948C36.6949 113.492 36.1669 114.084 35.4309 114.724L32.9669 116.836H37.6229V118.996H29.3189Z" fill="#87879D"/>
</g>
</g>
<defs>
<clipPath id="clip0_0_159">
<rect width="56" height="140" fill="white" transform="translate(0 0.996094)"/>
</clipPath>
<clipPath id="clip1_0_159">
<rect width="56" height="56" fill="white" transform="translate(0 84.9961)"/>
</clipPath>
</defs>
</svg>
